<svg viewBox="0 0 54.34 61.43" xmlns="http://www.w3.org/2000/svg"><path d="m4.33 31.82a3.51 3.51 0 0 1 -.94-2.55c0-3.52 0-7 0-10.57a3.68 3.68 0 0 1 3.87-3.8h6.08a.76.76 0 0 1 .51-.12h4.15 2.92q4.46 0 8.91 0a2.48 2.48 0 0 1 2 .75 5.25 5.25 0 0 1 .58 2.65v9.91a3.87 3.87 0 0 1 -3 4 5.71 5.71 0 0 1 -1.37.08h-1.13c-.52 0-.58.07-.42.53.28.85.38 1.74.68 2.58a1 1 0 0 1 0 .17c0 .17.14.38 0 .5s-.32-.07-.47-.16c-1.71-1.08-3.39-2.22-5.1-3.31a2 2 0 0 0 -1.13-.32c-4.77 0-9.54 0-14.32 0a6.6 6.6 0 0 1 -1.82-.34z" fill="#5d4e9c"/><path d="m31.85 15.6a3.24 3.24 0 0 0 -2.18-.7h-8.26-.45c-.22-.11-.13-.27-.05-.41a15.77 15.77 0 0 1 3.44-4.49 13.86 13.86 0 0 1 2.27-1.65 13.61 13.61 0 0 0 -4.25 2.07 14.69 14.69 0 0 0 -3.6 3.94c-.18.28-.36.5-.72.48h-4.71l.08-.33c0-.05 0-.14.07-.19a2.12 2.12 0 0 1 .36-.72 1.38 1.38 0 0 1 .15-.3c.44-.67.83-1.36 1.3-2a17.5 17.5 0 0 1 3.59-3.65l.9-.65a1.14 1.14 0 0 1 .56-.35l.33-.2a3.78 3.78 0 0 1 .35-.17 19.5 19.5 0 0 1 3.52-1.28.58.58 0 0 0 .18-.11.55.55 0 0 1 .28 0 20.21 20.21 0 0 1 4.66.41 16.8 16.8 0 0 1 5.57 2.34c.24.17.47.33.43.67-.12.56-.33 1.1-.43 1.67a7.57 7.57 0 0 0 .64 4.35 1.54 1.54 0 0 0 .26.51 7.43 7.43 0 0 0 1.22 1.57 1.53 1.53 0 0 0 .31.26l.09.06a1.64 1.64 0 0 0 .36.29l.09.07a2.55 2.55 0 0 0 .56.36 8.61 8.61 0 0 0 3.19 1c.39 0 .54.23.59.62a16.48 16.48 0 0 1 -2.87 12.22 16.31 16.31 0 0 1 -9 6.38c-.32.09-.66.29-1 0a26.52 26.52 0 0 1 -1-3.41c-.08-.33.12-.42.4-.43h1.9a3.59 3.59 0 0 0 3.68-3.66c-.07-3.53 0-7.07 0-10.61a3.45 3.45 0 0 0 -2.12-3.35 1.51 1.51 0 0 1 -.69-.61z" fill="#ffd004"/><path d="m51.21 46.84a3.69 3.69 0 0 1 -2.84 1.24h-11.25a2.86 2.86 0 0 0 -.88 0c-.33.13-.05.55-.23.79 0-.06 0 0 0 0-.08-.66-.54-.65-1.06-.65h-12.38a1.4 1.4 0 0 1 -.83-.12h-12.11a4.07 4.07 0 0 1 -3.7-2.1 2.46 2.46 0 0 1 -.35-.91 3.25 3.25 0 0 1 1.75-3.14 5.46 5.46 0 0 1 1.79-.63h28.45a.59.59 0 0 1 .42.13 1.16 1.16 0 0 1 .11.69v4.13c0 .38.13.48.49.48h12c.21-.06.41-.1.62.09z" fill="#ffd004"/><path d="m29.69 37.67a10.4 10.4 0 0 0 2.74-.8 15.69 15.69 0 0 0 3.82-2.22 16.54 16.54 0 0 0 4.27-5 15.35 15.35 0 0 0 1.64-4.18 13.45 13.45 0 0 0 .44-3.23 25.9 25.9 0 0 0 -.17-3.24c0-.36-.21-.44-.48-.53.16-.16.36-.12.54-.12a7 7 0 0 0 2.51-.49c.16-.05.31-.16.48 0a17.72 17.72 0 0 1 .46 4.1v11.32a10.66 10.66 0 0 0 2 6.23l.14.22c0 .21-.19.21-.33.23a3.17 3.17 0 0 1 -.53 0h-36.61c-.29 0-.6.08-.85-.14a.25.25 0 0 1 .08-.31 6.23 6.23 0 0 1 2.06-.25c2.63-.27 5.27-.47 7.9-.7 1.68-.14 3.36-.25 5-.4 1.51-.14 3-.19 4.54-.48a.65.65 0 0 1 .35-.01z" fill="#fab612"/><path d="m35.82 14.37a7.33 7.33 0 0 1 -.31-6l.05-.17a3.93 3.93 0 0 1 1.15-1.95 8.28 8.28 0 0 1 2.89-2.04 7 7 0 0 1 3.16-.51.61.61 0 0 0 .44 0 7.13 7.13 0 0 1 5.35 3.3 1.75 1.75 0 0 1 .21.67 16.93 16.93 0 0 0 -.09 2.25 1.78 1.78 0 0 0 .07.65 5.62 5.62 0 0 1 -1 2.79 7.86 7.86 0 0 1 -5.74 3.81 7.24 7.24 0 0 1 -4.3-.52c-.16 0-.26-.17-.4-.24a5.29 5.29 0 0 1 -1.25-1.57 1.66 1.66 0 0 0 -.23-.47z" fill="#e7226e"/><path d="m28.21 59.19h8.19c1.54 0 3.08 0 4.62.08s3 .09 4.47.18c1.91.12 3.82.19 5.72.44a7.66 7.66 0 0 1 .95.21c.09 0 .23.05.23.17s-.13.13-.23.16a9.29 9.29 0 0 1 -2.09.33c-1.55.14-3.11.23-4.67.29l-4.3.18c-1.83.07-3.67 0-5.5.09-4.25.16-8.5.07-12.75 0-1.59 0-3.19 0-4.79-.06s-3.45-.13-5.18-.19c-1.43 0-2.86-.14-4.28-.26a19.54 19.54 0 0 1 -2.75-.37c-.13 0-.39 0-.37-.23s.21-.17.36-.21a15.37 15.37 0 0 1 2.53-.33c1.75-.14 3.5-.23 5.26-.3.66 0 1.33 0 2-.07 1.43-.08 2.87 0 4.3-.1 2.97-.1 5.94.07 8.28-.01z" fill="#e9e8e8"/><path d="m29.51 37.76a15.39 15.39 0 0 1 -2.51.34c-1.37.09-2.73.23-4.09.36-.79.07-1.58.13-2.38.18-1.61.11-3.22.27-4.83.43-.77.07-1.55.11-2.33.19-1.16.12-2.32.19-3.48.28a1.27 1.27 0 0 1 .52-.89 9.79 9.79 0 0 0 1.43-4.35c.09-.14-.05-.35.16-.45a1.35 1.35 0 0 1 .53-.06h10.4.44a1 1 0 0 1 .54.17c1.48 1 3 1.9 4.42 2.88.28.2.61.34.89.55.12.11.31.15.29.37z" fill="#ffd004"/><path d="m9.75 39.68c.11.18.29.12.44.12q18.74 0 37.46 0c.16 0 .33.07.46-.1.3.18.65.11 1 .19a3.28 3.28 0 0 1 1.43.62c0 .23-.23.19-.38.22h-11.47c-.29 0-.57 0-.66.36a.34.34 0 0 1 -.12.12 2.34 2.34 0 0 1 -.79 0h-28.07c-.09 0-.12 0-.08.13a7.49 7.49 0 0 0 -1.39.52 3.5 3.5 0 0 0 -2 3.14 4.08 4.08 0 0 1 2-4.75c.33-.16.68-.28 1-.41s.8 0 1.17-.16z" fill="#fee158"/><path d="m33.48 53.31a7.69 7.69 0 0 1 -4.92 1.51 8.85 8.85 0 0 1 -2.5-.53 4.8 4.8 0 0 1 -.73-.33 2 2 0 0 1 -.62-.37 4.3 4.3 0 0 1 -.71-.59 7 7 0 0 1 -2-3.19c0-.08 0-.17 0-.26a.94.94 0 0 1 .44 0h13.12a.67.67 0 0 1 .39.07 6.65 6.65 0 0 1 -.62 1.66c-.07.16-.09.36-.27.46a1.17 1.17 0 0 1 -.27.36 5.45 5.45 0 0 1 -.5.66c-.35.09-.5.43-.81.55z" fill="#ffd004"/><path d="m28.27 37c-1.56-1-3.1-2.07-4.69-3a2 2 0 0 1 -.61-.27 2.28 2.28 0 0 0 -1.6-.48c-3.13 0-6.27 0-9.4 0-1.73 0-3.46 0-5.19 0a1.34 1.34 0 0 1 -.78-.25 3.82 3.82 0 0 1 -1.7-1.15c.11-.16.26-.12.39-.05a2.33 2.33 0 0 0 1.19.2h14.23a3.54 3.54 0 0 1 2.11.7c.91.62 1.85 1.22 2.77 1.82l2.21 1.44c-.27-1-.49-2-.77-3s-.32-1 .69-1h1.47a3.63 3.63 0 0 0 3.52-2.74 5.87 5.87 0 0 0 .16-1.31q0-5.07 0-10.14a4.47 4.47 0 0 0 -.41-1.93c0-.08-.14-.17 0-.26.26.08.39.33.61.46a3.09 3.09 0 0 1 1.09 2.6v5.74 5a3.76 3.76 0 0 1 -3.1 3.71 12.64 12.64 0 0 1 -2 0c-.94 0-.94 0-.68.86s.42 1.57.63 2.36c0 .26.17.5-.14.69z" fill="#5b4a99"/><path d="m48.63 7.61-.08-.61a3.84 3.84 0 0 1 .63 1.16c.06.15 0 .33.18.45a3.82 3.82 0 0 1 .35 1.48c.09.25 0 .51.07.75v.54c-.12.23 0 .49-.07.73a6.93 6.93 0 0 1 -2.14 4.29 8 8 0 0 1 -2.09 1.46l-.4.1a8.82 8.82 0 0 1 -2.87.48.85.85 0 0 1 -.52-.05c0-.22.17-.08.25-.11-.19-.06-.38.06-.58.05a3.85 3.85 0 0 1 -.89-.15c-.22-.09-.12-.14 0-.19-.52.21-.89-.18-1.32-.32-.11 0-.08-.17-.08-.27s-.3 0-.45 0a2.07 2.07 0 0 1 -.52-.3 2.94 2.94 0 0 0 -.44-.35s0-.05 0-.07c.6.12 1.16.39 1.78.46a8.29 8.29 0 0 0 4.56-.63 8 8 0 0 0 4-3.91 5.56 5.56 0 0 0 .59-2 20.3 20.3 0 0 0 .04-2.99z" fill="#da1662"/><path d="m35.9 49.59a2.63 2.63 0 0 1 -.74.08h-12.6a1 1 0 0 1 -.61-.09 5.76 5.76 0 0 1 -.21-1.49h2.89 10.51c.84 0 .84 0 .87.83a1.64 1.64 0 0 1 -.11.67z" fill="#fab612"/><path d="m24.78 4.06a4 4 0 0 1 1.22-2.55 3.57 3.57 0 0 1 .27-.28 3.16 3.16 0 0 1 1.65-.91.45.45 0 0 0 .34-.09c.23-.12.49 0 .72-.09a.26.26 0 0 1 .35 0c.22.12.49 0 .71.1a4.45 4.45 0 0 1 3.43 3.47 3.05 3.05 0 0 1 .05.52 1.3 1.3 0 0 1 -.73-.06 3.74 3.74 0 0 0 -1.37-.17h-.13a.56.56 0 0 1 -.19-.34.84.84 0 0 0 -.17-.4 2.14 2.14 0 0 0 -3.74.27 1.19 1.19 0 0 1 -.13.25.33.33 0 0 1 -.19.11c-.52 0-1 .16-1.55.24-.18.02-.32.08-.54-.07z" fill="#ffd004"/><path d="m36.71 6.29a15.84 15.84 0 0 0 -1.15 2c0-.24-.09-.37-.28-.5a16.31 16.31 0 0 0 -4.81-2.17 15.84 15.84 0 0 0 -3.56-.62c-.67 0-1.35 0-2-.06 0-.23.22-.2.36-.24a6 6 0 0 1 .95-.14c.32 0 .53-.12.54-.48a.22.22 0 0 1 .17-.23s0 0 0 0c.07.55.45.56.87.5h2.33a1.5 1.5 0 0 1 .37 0 1.62 1.62 0 0 0 .58.07h.12c.08 0 .12-.17.24-.14a1 1 0 0 0 .68.34 6 6 0 0 1 .61.1c.54.1.54.1.78-.37-.06.58.28.78.79.91a9.68 9.68 0 0 1 2.41 1.03z" fill="#fab613"/><path d="m6 33c1.58.2 3.17.05 4.75.1h1.15a.85.85 0 0 1 0 .83l-.09.37c0-.29-.11-.38-.39-.37-1.07 0-2.15 0-3.22 0a2.84 2.84 0 0 1 -2.2-.93z" fill="#e4e4e5"/><path d="m1.55 16.54h1.07c.2 0 .38.07.39.33s-.16.38-.39.38h-2.22c-.22 0-.41-.12-.4-.38s.22-.34.44-.34z" fill="#63529e"/><path d="m5.34 13.43v1.11c0 .2-.08.35-.3.37a.32.32 0 0 1 -.39-.32c0-.79 0-1.57 0-2.35a.33.33 0 0 1 .35-.34.34.34 0 0 1 .34.38z" fill="#60509d"/><path d="m1.88 13.49a.48.48 0 0 1 .41.2l1.45 1.44c.18.18.27.38.08.58s-.39.12-.57-.06l-1.5-1.5a.36.36 0 0 1 .13-.66z" fill="#5f4e9c"/><path d="m33.52 4.38s0 .09 0 .13c0 .57 0 .56-.57.41-.31-.08-.63-.11-.95-.16s-.54-.1-.59-.44a.23.23 0 0 1 0-.35c0-.12.07-.19.21-.16a18.09 18.09 0 0 1 1.94.42z" fill="#f6a119"/><path d="m26.93 3.87c0 .91-.68.82-1.25.89a2.67 2.67 0 0 0 -.79.18l-.16-.08a1.67 1.67 0 0 1 .05-.8 15.15 15.15 0 0 0 1.64-.27 3 3 0 0 1 .52 0z" fill="#f6a21a"/><path d="m12.85 14.75h-6.24a35.8 35.8 0 0 1 6.24 0z" fill="#fdfdf9"/><path d="m9.75 39.68a2.82 2.82 0 0 1 -1.14.22c-.09-.31.17-.19.26-.18.52.09.73-.18.9-.63.07-.19.16-.67.62-.44l-.52.89z" fill="#fdfcf4"/><path d="m27.92.32a6.73 6.73 0 0 0 -1.69.91 2.11 2.11 0 0 1 1.69-.91z" fill="#fdfbee"/><path d="m50.76 40.6s0 0 0 .08a4.77 4.77 0 0 1 -.53.57c-.07.07-.16.14-.25 0s-.1-.49.16-.66.27 0 .37-.09z" fill="#b7a764"/><path d="m34.21 52.66.53-.6.11.13c-.31.09-.32.5-.63.6a.1.1 0 0 1 -.01-.13z" fill="#fdfcf3"/><path d="m34.21 52.66v.13c-.12.15-.34.21-.41.43s-.21.07-.33.09z" fill="#fdfbe8"/><path d="m24 53a2.22 2.22 0 0 1 .7.56.77.77 0 0 1 -.7-.56z" fill="#fdfae8"/><path d="m20.38 6.64a1.36 1.36 0 0 1 -.56.35c.01-.39.28-.39.56-.35z" fill="#fdfcf1"/><path d="m25.33 54a2.41 2.41 0 0 1 .73.33.93.93 0 0 1 -.73-.33z" fill="#fdfbef"/><path d="m35 51.71a1 1 0 0 1 .27-.46c.08.25.08.45-.27.46z" fill="#fdfcf3"/><path d="m13.49 14.36a.18.18 0 0 1 -.07.19c-.06-.15-.31-.27-.07-.49z" fill="#fdfcf3"/><path d="m49.71 12.08c.09-.24-.22-.51.07-.73a1.3 1.3 0 0 1 -.07.73z" fill="#c8245f"/><path d="m49.78 10.81c-.16-.24-.05-.5-.07-.75a1.37 1.37 0 0 1 .07.75z" fill="#cd1c5f"/><path d="m29 .14a1.93 1.93 0 0 1 -.72.09c.21-.18.46-.07.72-.09z" fill="#fdfbee"/><path d="m30 .24a1.88 1.88 0 0 1 -.71-.1c.28.03.54-.14.71.1z" fill="#fdfbee"/><path d="m49.36 8.58c-.24-.08-.19-.27-.18-.45a.81.81 0 0 1 .18.45z" fill="#d32864"/><path d="m14 13.3a.46.46 0 0 1 -.18.34c-.07-.2.09-.26.18-.34z" fill="#fdfcf3"/><path d="m34.74 52.07a.62.62 0 0 1 .27-.36c-.01.19-.1.29-.27.36z" fill="#fdfcf3"/><path d="m43.2 3.71a.31.31 0 0 1 -.44 0z" fill="#d72e6d"/><path d="m29.33.15h-.33c.1-.25.21-.15.33 0z" fill="#fdfbee"/><path d="m21.06 6.27a.44.44 0 0 1 -.35.17.32.32 0 0 1 .35-.17z" fill="#fdfcf1"/><g fill="#b4a0cd"><path d="m18.39 23.08h9.82c.6 0 .87.25.87.77s-.28.75-.88.75h-19.65a.75.75 0 0 1 -.78-.46.77.77 0 0 1 .23-.86.86.86 0 0 1 .7-.2z"/><path d="m18.44 28.07h-9.77a.87.87 0 0 1 -.77-.25.68.68 0 0 1 -.13-.74.79.79 0 0 1 .62-.52 1.58 1.58 0 0 1 .31 0h19.46a.85.85 0 0 1 .73.24.76.76 0 0 1 -.63 1.29z"/><path d="m18.44 19.61h7.2c.59 0 .89.29.85.83a.69.69 0 0 1 -.64.68 3.85 3.85 0 0 1 -.48 0h-14.23a.8.8 0 0 1 -.83-.75.74.74 0 0 1 .84-.77z"/></g><path d="m18.05 14.88c.57-.1.68-.65.94-1a14.39 14.39 0 0 1 3.84-3.88 12.91 12.91 0 0 1 3.94-1.75h.23a20.87 20.87 0 0 0 -2.55 1.85 14.76 14.76 0 0 0 -2.94 3.51l-.52.88c-.07.12-.16.25-.05.4z" fill="#fee159"/><path d="m28.27 37c.15-.09.05-.2 0-.31-.29-1.08-.56-2.17-.87-3.25-.07-.27 0-.33.26-.33h2.09a3.59 3.59 0 0 0 3.65-3.62c0-3.62 0-7.25 0-10.87a3.92 3.92 0 0 0 -1-2.51 3.5 3.5 0 0 1 2.3 3.21v11.2a3.64 3.64 0 0 1 -3.48 3.46c-.71 0-1.42 0-2.13 0-.4 0-.43.13-.34.46.3 1.09.59 2.19.88 3.29a.21.21 0 0 1 -.18.09 9.1 9.1 0 0 0 -1.18-.82z" fill="#e6ba05"/><path d="m41.69 18.28a6.11 6.11 0 0 0 1.86 0 11.52 11.52 0 0 0 1.53-.31 6.15 6.15 0 0 1 -2.64.53h-.44a7.05 7.05 0 0 1 -3.3-1.05v-.05c.17 0 .33-.14.51-.06 0 .19 0 .32.25.41s.73.37 1.17.18c0 .18-.16.07-.17.18.27.18.62 0 .9.2a.37.37 0 0 1 .33-.03z" fill="#da1f58"/><path d="m38.13 17c.23 0 .34.21.54.26a.05.05 0 0 1 0 .05 1 1 0 0 1 -.54-.31z" fill="#da1f58"/><path d="m37.69 16.69c.23 0 .34.17.44.35a.67.67 0 0 1 -.44-.35z" fill="#dc235c"/><path d="m35.82 14.37a.49.49 0 0 1 .26.47 1 1 0 0 1 -.26-.47z" fill="#e63067"/><path d="m37.69 16.59v.1a.55.55 0 0 1 -.35-.28c.16-.04.25.08.35.18z" fill="#dc235c"/><path d="m9 41.4c-.1 0-.21 0-.27-.09a.71.71 0 0 1 .55-.12 18.88 18.88 0 0 0 2 0h26c.13 0 .3 0 .33.17z" fill="#ffde59"/><path d="m37.6 41.4c-.06-.1-.17-.08-.26-.09.15-.28.4-.07.6-.11a.14.14 0 0 1 0 .2z" fill="#fee158"/><path d="m48.63 7.61a4.68 4.68 0 0 1 .13 2.26c0 .25.07.54-.13.76a9.21 9.21 0 0 1 0-2.46c-.03-.17-.01-.37 0-.56z" fill="#e7216b"/><path d="m43.21 13.65v-5.15c.11.09.09.21.09.33v4.5c0 .11.02.24-.09.32z" fill="#d6266a"/><path d="m40.72 9.75v.87c-.22-.27-.08-.58-.09-.87a.05.05 0 0 1 .09 0z" fill="#dc2369"/><path d="m35.65 12.77a.32.32 0 0 1 .12.43z" fill="#e72365"/><path d="m11.91 33.93c0-.28 0-.56 0-.83h.62 8.62a3.42 3.42 0 0 1 2.41.88h-11.65z" fill="#e5b90b"/><path d="m38 41.13v.09c-.21 0-.43-.08-.61.09h-27.39a3.34 3.34 0 0 0 -1.26 0c0-.12.09-.17.21-.17h29.05z" fill="#fde255"/><path d="m38.14 46.65c.07-.1.18-.09.28-.09a25.3 25.3 0 0 1 2.89-.05 5.33 5.33 0 0 0 1.19 0 .56.56 0 0 0 .58.08 10.69 10.69 0 0 1 1.79-.09 2.59 2.59 0 0 1 .93 0 1.22 1.22 0 0 0 1.06-.11c.13-.11.26 0 .5.17a.14.14 0 0 0 .11 0 3 3 0 0 1 1.51 0c.45.09.91-.1 1.34.08-.08.27-.3.12-.44.12-3.75 0-7.51 0-11.26 0a1 1 0 0 1 -.48-.11z" fill="#b4a135"/><path d="m38.14 46.65h11.68c.17 0 .36.06.5-.09.07.07.08.14 0 .16a2.06 2.06 0 0 1 -.35 0h-11.37c-.16.02-.33.08-.46-.07z" fill="#b79f3b"/><path d="m39.41 41.74c.15 0 .25.1.23.26a.23.23 0 0 1 -.28.21.22.22 0 0 1 -.21-.24c-.01-.15.1-.23.26-.23z" fill="#fbf8ea"/><path d="m44.08 46.09c.28 0 .56-.38.93.06-.37-.15-.64.1-.93-.06z" fill="#b4a135"/><path d="m42.41 46.49a.58.58 0 0 1 .75-.09z" fill="#b4a135"/><path d="m43.2 42.36h-.25a.21.21 0 0 1 -.06-.3c.16.06.23.19.31.3z" fill="#a28f30"/><path d="m41.11 46.06a.33.33 0 0 1 .39.18c-.21.09-.29-.02-.39-.18z" fill="#b4a135"/><path d="m42.57 46a.25.25 0 0 1 -.3.19s-.09-.05-.05-.09.2-.1.35-.1z" fill="#b4a135"/><path d="m47.25 41.87c.11 0 .24 0 .31.09s0 .09-.06.09-.23-.05-.25-.18z" fill="#f0e4ad"/><path d="m46.85 45.94h.27c0 .09 0 .17-.15.16s-.1-.1-.12-.16z" fill="#b4a135"/><path d="m38.69 17.38a.24.24 0 0 1 0-.08c.18-.2.36-.13.53 0-.22.01-.34.23-.53.08z" fill="#d71a63"/><path d="m41.69 18.28h-.34c.22-.16.46-.05.74-.08-.09.13-.28.06-.4.08z" fill="#d91864"/><path d="m26.93 3.87a.06.06 0 0 0 0-.07l.07-.1c.13 0 0-.14.07-.19a2.21 2.21 0 0 1 3.93-.27c0 .12 0 .27.17.37l.1.33c.09.09-.18.11 0 .24a.31.31 0 0 1 0 .4h-.07c-.2-.19-.44 0-.65-.07h-.33a14.79 14.79 0 0 0 -2.49 0h-.13c-.69.05-.69.05-.67-.64z" fill="#fff"/><path d="m31.29 4.58c0-.12 0-.25-.09-.35s.06-.2.1-.29.05 0 .07 0v.35c-.02.11.07.25-.08.29z" fill="#fdfcf3"/><path d="m27.1 3.51c0 .1.27.15.15.29s-.14-.09-.22-.1z" fill="#fcfcf1"/><path d="m31.2 3.61c-.24 0-.16-.23-.17-.37a.47.47 0 0 1 .17.37z" fill="#fdfcf3"/><path d="m27.73 4.49a6.72 6.72 0 0 1 2.49 0z" fill="#fffdf3"/><path d="m30.55 4.51c.22 0 .47-.29.65.07a1.31 1.31 0 0 1 -.65-.07z" fill="#fdfcf3"/><path d="m37.66 47.61-.06-6.61a1 1 0 0 1 .65-.19c3.6 0 7.19-.11 10.78-.08a5.78 5.78 0 0 1 5 2.45 1.33 1.33 0 0 1 .26.68 11 11 0 0 1 -.29 1.25 5.83 5.83 0 0 1 -4.61 2.52l-11.13.1a1 1 0 0 1 -.6-.12z" fill="#ffd01a"/></svg>