<svg fill="none" height="165" viewBox="0 0 213 165" width="213" xmlns="http://www.w3.org/2000/svg"><circle cx="110" cy="90" fill="#e5e2ff" r="75"/><circle cx="77" cy="5" fill="#3629b7" r="5"/><circle cx="200.5" cy="34.5" fill="#ff4267" r="12.5"/><circle cx="183" cy="136" fill="#0890fe" r="5"/><circle cx="52" cy="136" fill="#ffaf2a" r="10"/><circle cx="5" cy="70" fill="#52d5ba" r="5"/><path d="m120.538 83.3239c-.618 0-1.145-.5109-1.145-1.1312v-9.962c0-5.2182-4.215-9.4512-9.411-9.4512-5.197 0-9.412 4.2512-9.412 9.4512v9.962c0 .6203-.508 1.1312-1.1443 1.1312h-6.3227c-.6177 0-1.1264-.5109-1.1264-1.1312v-9.962c0-9.9803 8.0854-18.0995 18.0234-18.0995s18.023 8.1192 18.023 18.0995v9.962c0 .6203-.509 1.1312-1.145 1.1312z" fill="#5655b9"/><path d="m110 55.2624c9.302 0 16.878 7.6084 16.878 16.95v9.9621h-6.322v-9.9621c0-5.8385-4.724-10.6006-10.556-10.6006-5.814 0-10.5562 4.7439-10.5562 10.6006v9.9621h-6.3226v-9.9621c0-9.3416 7.5578-16.95 16.8788-16.95zm0-2.2624c-10.5562 0-19.1499 8.6301-19.1499 19.2307v9.962c0 1.2589 1.0174 2.2807 2.2711 2.2807h6.3226c1.2532 0 2.2712-1.0218 2.2712-2.2807v-9.962c0-4.5796 3.706-8.3199 8.285-8.3199 4.56 0 8.285 3.7403 8.285 8.3199v9.962c0 1.2589 1.017 2.2807 2.271 2.2807h6.322c1.254 0 2.272-1.0218 2.272-2.2807v-9.962c0-10.6189-8.594-19.2307-19.15-19.2307z" fill="#fff"/><path d="m88.8881 124.887c-1.5262 0-2.7616-1.241-2.7616-2.773v-38.2975c0-1.5326 1.2354-2.7733 2.7616-2.7733h42.2239c1.526 0 2.762 1.2407 2.762 2.7733v38.2785c0 1.533-1.236 2.774-2.762 2.774h-42.2239z" fill="#5655b9"/><path d="m131.112 82.1927c.89 0 1.617.7298 1.617 1.6421v38.2792c0 .894-.727 1.642-1.617 1.642h-42.2239c-.9084 0-1.617-.73-1.617-1.642v-38.2975c0-.894.7267-1.642 1.617-1.642h42.2239zm0-2.2807h-42.2239c-2.1439 0-3.8881 1.7516-3.8881 3.9045v38.2785c0 2.153 1.7442 3.905 3.8881 3.905h42.2239c2.144 0 3.888-1.752 3.888-3.905v-38.2785c0-2.1529-1.744-3.9045-3.888-3.9045z" fill="#fff"/><g fill="#5655b9"><path d="m131.112 82.1927h-8.249v30.1783c0 .894-.726 1.623-1.635 1.623h-33.9751v8.101c0 .894.7268 1.643 1.617 1.643h42.2241c.89 0 1.617-.73 1.617-1.643v-38.2785c.018-.894-.709-1.6238-1.599-1.6238z"/><path d="m131.112 82.1927h-3.089v34.7393c0 .912-.726 1.624-1.635 1.624h-39.1351v3.558c0 .894.7268 1.642 1.617 1.642h42.2241c.89 0 1.617-.73 1.617-1.642v-38.2975c.018-.894-.709-1.6238-1.599-1.6238z"/><path d="m108.171 107.262c0-.259-.159-.491-.401-.583-2.344-.895-3.995-3.167-3.995-5.821 0-3.4325 2.791-6.2179 6.207-6.2179 3.433 0 6.207 2.7843 6.207 6.2179 0 2.654-1.651 4.926-3.995 5.821-.242.092-.402.324-.402.583v3.211c0 1.008-.813 1.821-1.81 1.821s-1.811-.813-1.811-1.821z" stroke="#fff" stroke-linecap="round" stroke-linejoin="round" stroke-miterlimit="10" stroke-width="1.2486"/></g></svg>