<svg viewBox="0 0 48.08 48.07" xmlns="http://www.w3.org/2000/svg"><path d="m24.05 0a24 24 0 1 1 -24.05 24 24.08 24.08 0 0 1 24.05-24z" fill="#1d2141"/><path d="m24 45.65a20.57 20.57 0 0 1 -12.2-3.77 20.93 20.93 0 0 1 -8.8-12.96 21 21 0 0 1 4-18.16 21 21 0 0 1 12.09-7.76 16.84 16.84 0 0 1 4.91-.57 2.07 2.07 0 0 1 -.29 2.5 12.54 12.54 0 0 1 -2.11.26 19 19 0 0 0 -16.39 16.45 18.4 18.4 0 0 0 4.41 14.7 18.69 18.69 0 0 0 13.38 6.66 2.45 2.45 0 0 1 .75.12 2.09 2.09 0 0 1 .25 2.53z" fill="#5ab032"/><path d="m24 45.65c0-.56 0-1.11 0-1.66a.67.67 0 0 0 -.47-.74c.23-.29.55-.23.85-.23a18.46 18.46 0 0 0 11.91-4.55 18.33 18.33 0 0 0 6.71-12.92 18.34 18.34 0 0 0 -4.34-13.64 18.87 18.87 0 0 0 -13-6.82c-.43 0-.86 0-1.29 0-.27 0-.57 0-.77-.24a.67.67 0 0 0 .47-.74c0-.55 0-1.1 0-1.65a20.64 20.64 0 0 1 13.26 4.54 20.74 20.74 0 0 1 8.11 13.85 21.14 21.14 0 0 1 -7.64 19.9 20.81 20.81 0 0 1 -10.51 4.73 12.62 12.62 0 0 1 -3.29.17z" fill="#45ac3a"/><path d="m23.58 4.82a18.8 18.8 0 0 1 11.1 3.24 18.77 18.77 0 0 1 8.4 13.55 19.21 19.21 0 0 1 -13.23 20.74 20.16 20.16 0 0 1 -6.27.9 19 19 0 0 1 -13.42-6 18.69 18.69 0 0 1 -5.27-14.81 19.24 19.24 0 0 1 14.87-17.12 19.7 19.7 0 0 1 3.82-.5z" fill="#1d2141"/><path d="m23.39 7.26a14.72 14.72 0 0 1 7.23 1.29 16.58 16.58 0 0 1 9.98 12.45 16.85 16.85 0 0 1 -12.93 19.46 13.16 13.16 0 0 1 -4.29.35 1.87 1.87 0 0 0 .42-1.33c0-2.53 0-5.06 0-7.59-.08-.54.32-.82.64-1.14q4.9-4.92 9.83-9.83a3.61 3.61 0 0 0 1.16-3.15 3.42 3.42 0 0 0 -5-2.56 5.42 5.42 0 0 0 -1.19.94c-1.49 1.49-3 3-4.47 4.45-.23.22-.51.79-.91.12a4.9 4.9 0 0 1 -.07-1.21q0-5.42 0-10.84a2 2 0 0 0 -.4-1.41z" fill="#f2f2fa"/><path d="m23.88 31.65c.22.17.16.41.16.63v7.8c0 .52-.15.75-.67.73-6.7-.38-11.63-3.61-14.53-9.6a16.75 16.75 0 0 1 11.69-23.62 12 12 0 0 1 2.86-.33c.59 0 .66.3.66.81q0 6.48 0 13c0 .3-.17.47-.35.64-.71.73-1.42 1.45-2.15 2.15-.58.56-.78.53-1.2-.19s-.86-1.55-1.34-2.3a3.43 3.43 0 0 0 -6 3.39c1.23 2.22 2.48 4.42 3.81 6.57a3.93 3.93 0 0 0 6.21.82c.27-.25.45-.58.85-.5z" fill="#fff"/><path d="m23.88 31.65a5.86 5.86 0 0 1 -2.71 1.71 4 4 0 0 1 -4.31-1.68c-1.43-2.32-2.8-4.69-4.09-7.09a3.56 3.56 0 0 1 1.5-4.77 3.61 3.61 0 0 1 4.81 1.18c.65 1 1.22 2.08 1.78 3l3.2-3c1.8-1.78 3.58-3.58 5.4-5.34a3.65 3.65 0 1 1 5 5.29q-4.74 4.79-9.46 9.55c-.4.37-.76.76-1.12 1.15z" fill="#1d2141"/><path d="m20.27 31a1.51 1.51 0 0 1 -1.53-.81q-1.92-3.27-3.8-6.55a1.23 1.23 0 0 1 .47-1.77 1.27 1.27 0 0 1 1.76.53c.75 1.26 1.46 2.54 2.2 3.8s1.42 1.45 2.51.36l8.93-8.92a1.72 1.72 0 0 1 .91-.64 1.25 1.25 0 0 1 1.44.59 1.3 1.3 0 0 1 -.37 1.69q-3.7 3.72-7.42 7.42l-3.65 3.7a1.64 1.64 0 0 1 -1.45.6z" fill="#5ab032"/></svg>